<svg width="25" height="24" viewBox="0 0 25 24" fill="none" xmlns="http://www.w3.org/2000/svg">
<path d="M23.0637 10.4266H5.39714L13.1154 2.70841C13.7322 2.09158 13.7322 1.07936 13.1154 0.46253C12.969 0.31591 12.7952 0.199587 12.6039 0.12022C12.4126 0.0408524 12.2075 0 12.0003 0C11.7932 0 11.5881 0.0408524 11.3968 0.12022C11.2054 0.199587 11.0316 0.31591 10.8853 0.46253L0.462531 10.8853C0.315911 11.0316 0.199588 11.2054 0.12022 11.3968C0.0408532 11.5881 0 11.7932 0 12.0003C0 12.2075 0.0408532 12.4126 0.12022 12.6039C0.199588 12.7952 0.315911 12.969 0.462531 13.1154L10.8853 23.5381C11.0317 23.6846 11.2056 23.8007 11.3969 23.88C11.5882 23.9592 11.7933 24 12.0003 24C12.2074 24 12.4125 23.9592 12.6038 23.88C12.7951 23.8007 12.9689 23.6846 13.1154 23.5381C13.2618 23.3917 13.3779 23.2179 13.4572 23.0266C13.5364 22.8352 13.5772 22.6302 13.5772 22.4231C13.5772 22.216 13.5364 22.011 13.4572 21.8197C13.3779 21.6283 13.2618 21.4545 13.1154 21.3081L5.39714 13.5898H23.0637C23.9335 13.5898 24.6453 12.8781 24.6453 12.0082C24.6453 11.1384 23.9335 10.4266 23.0637 10.4266Z" fill="#FD8263"/>
</svg>
