<svg width="31" height="24" viewBox="0 0 31 24" fill="none" xmlns="http://www.w3.org/2000/svg">
<path d="M18.5456 5.45454H26.182V7.63636H18.5456V5.45454ZM18.5456 10.9091H26.182V13.0909H18.5456V10.9091ZM18.5456 16.3636H26.182V18.5455H18.5456V16.3636ZM4.36377 5.45454H12.0001V7.63636H4.36377V5.45454ZM4.36377 10.9091H12.0001V13.0909H4.36377V10.9091ZM4.36377 16.3636H12.0001V18.5455H4.36377V16.3636Z" fill="#FF9A62"/>
<path d="M28.3636 0H2.18182C1.60334 0.000577611 1.04872 0.230633 0.639678 0.639678C0.230633 1.04872 0.000577611 1.60334 0 2.18182V21.8182C0.000577611 22.3967 0.230633 22.9513 0.639678 23.3603C1.04872 23.7694 1.60334 23.9994 2.18182 24H28.3636C28.9421 23.9994 29.4967 23.7694 29.9058 23.3603C30.3148 22.9513 30.5449 22.3967 30.5455 21.8182V2.18182C30.5449 1.60334 30.3148 1.04872 29.9058 0.639678C29.4967 0.230633 28.9421 0.000577611 28.3636 0ZM2.18182 2.18182H14.1818V21.8182H2.18182V2.18182ZM16.3636 21.8182V2.18182H28.3636V21.8182H16.3636Z" fill="#FF9A62"/>
</svg>
