<svg width="24" height="24" viewBox="0 0 24 24" fill="none" xmlns="http://www.w3.org/2000/svg">
<path d="M16.7913 0.36984C17.0282 0.133031 17.3495 0 17.6844 0C18.0194 0 18.3406 0.133031 18.5775 0.36984L23.6302 5.42253C23.867 5.65941 24 5.98064 24 6.31559C24 6.65054 23.867 6.97177 23.6302 7.20865L7.20892 23.6299C6.97209 23.8668 6.65085 23.9999 6.31586 24H1.26317C0.928158 24 0.606865 23.8669 0.369974 23.63C0.133084 23.3931 0 23.0718 0 22.7368V17.6841C7.15428e-05 17.3492 0.133202 17.0279 0.370109 16.7911L13.0018 4.15936L16.7913 0.36984ZM13.8949 6.83854L2.52634 18.2071V21.4737H5.79291L17.1615 10.1051L13.8949 6.83854ZM18.9476 8.31898L20.951 6.31559L17.6844 3.04903L15.681 5.05242L18.9476 8.31898Z" fill="#FF9A62"/>
</svg>
