<svg width="54" height="54" viewBox="0 0 54 54" fill="none" xmlns="http://www.w3.org/2000/svg">
<path d="M39.4526 0C42.2068 0 44.8481 1.09407 46.7956 3.04154C48.743 4.989 49.8371 7.63033 49.8371 10.3845V16.6151H47.9471C47.6606 16.6036 47.3738 16.6036 47.0873 16.6151H4.15378V39.4526C4.15378 41.1051 4.81023 42.6899 5.97871 43.8584C7.14719 45.0269 8.73198 45.6833 10.3845 45.6833H17.8447L16.8062 49.8371H10.3845C7.63033 49.8371 4.989 48.743 3.04154 46.7956C1.09407 44.8481 0 42.2068 0 39.4526V10.3845C0 7.63033 1.09407 4.989 3.04154 3.04154C4.989 1.09407 7.63033 0 10.3845 0H39.4526ZM39.4526 4.15378H10.3845C8.73198 4.15378 7.14719 4.81023 5.97871 5.97871C4.81023 7.14719 4.15378 8.73198 4.15378 10.3845V12.4614H45.6833V10.3845C45.6833 8.73198 45.0269 7.14719 43.8584 5.97871C42.6899 4.81023 41.1051 4.15378 39.4526 4.15378ZM47.1787 20.7648C47.4874 20.7483 47.797 20.7539 48.105 20.7814C49.3318 20.8926 50.5016 21.3512 51.4771 22.1035C52.4527 22.8557 53.1936 23.8705 53.6129 25.0288C54.0323 26.1872 54.1128 27.441 53.845 28.6435C53.5772 29.8459 52.9722 30.9471 52.1009 31.818L34.2895 49.6294C32.8112 51.1071 30.959 52.1553 28.9311 52.6617L23.905 53.9203C23.4808 54.0264 23.0363 54.0209 22.6148 53.9044C22.1933 53.7878 21.8091 53.5641 21.4997 53.2551C21.1902 52.9461 20.966 52.5622 20.8489 52.1409C20.7318 51.7195 20.7257 51.275 20.8312 50.8506L22.0898 45.8245L22.1272 45.6833C22.6464 43.709 23.6814 41.9084 25.1262 40.4662L42.9335 22.6547C44.0657 21.5183 45.5807 20.8445 47.1828 20.7648H47.1787Z" fill="#FD8263"/>
</svg>
