<svg width="84" height="31" viewBox="0 0 84 31" fill="none" xmlns="http://www.w3.org/2000/svg">
<path d="M34.8747 28.1603V23.9898L33.0741 27.1984H32.6509L30.8427 23.9898V28.1603H30.1501V22.6971H30.8811L32.8587 26.2443L34.8439 22.6971H35.5672V28.1603H34.8747ZM36.4147 26.9984C36.4147 26.7419 36.4865 26.5213 36.6301 26.3366C36.7789 26.1468 36.9815 26.0006 37.238 25.898C37.4945 25.7955 37.792 25.7442 38.1306 25.7442C38.3101 25.7442 38.4999 25.7595 38.7 25.7903C38.9 25.816 39.077 25.857 39.2309 25.9134V25.621C39.2309 25.3133 39.1386 25.0722 38.9539 24.8977C38.7692 24.7182 38.5076 24.6284 38.1691 24.6284C37.9485 24.6284 37.7356 24.6695 37.5304 24.7515C37.3303 24.8285 37.1175 24.9413 36.8917 25.0901L36.6455 24.613C36.9071 24.4335 37.1687 24.3001 37.4304 24.2129C37.692 24.1206 37.9639 24.0744 38.246 24.0744C38.759 24.0744 39.1642 24.218 39.4618 24.5053C39.7593 24.7875 39.908 25.1824 39.908 25.6903V27.3908C39.908 27.4729 39.9234 27.5344 39.9542 27.5755C39.9901 27.6114 40.0465 27.6319 40.1235 27.637V28.1603C40.0568 28.1705 39.9978 28.1782 39.9465 28.1834C39.9004 28.1885 39.8619 28.1911 39.8311 28.1911C39.6721 28.1911 39.5515 28.1475 39.4695 28.0602C39.3925 27.973 39.3489 27.8807 39.3386 27.7832L39.3233 27.5293C39.1488 27.755 38.9206 27.9294 38.6384 28.0526C38.3563 28.1757 38.0767 28.2372 37.7997 28.2372C37.533 28.2372 37.2944 28.1834 37.0841 28.0756C36.8738 27.9628 36.7096 27.814 36.5916 27.6293C36.4737 27.4395 36.4147 27.2292 36.4147 26.9984ZM39.0309 27.2831C39.0924 27.2113 39.1411 27.1395 39.1771 27.0676C39.213 26.9907 39.2309 26.9266 39.2309 26.8753V26.3751C39.0719 26.3136 38.9052 26.2674 38.7308 26.2366C38.5564 26.2007 38.3845 26.1828 38.2152 26.1828C37.8715 26.1828 37.592 26.252 37.3765 26.3905C37.1662 26.5239 37.061 26.7086 37.061 26.9445C37.061 27.0728 37.0944 27.1984 37.1611 27.3216C37.2329 27.4395 37.3355 27.537 37.4688 27.614C37.6073 27.6909 37.7766 27.7294 37.9767 27.7294C38.187 27.7294 38.3871 27.6883 38.5769 27.6063C38.7667 27.5191 38.918 27.4113 39.0309 27.2831ZM43.8224 28.1603L42.4297 26.2058L41.6679 26.9214V28.1603H40.9908V22.5432H41.6679V26.2135L43.7455 24.1514H44.4764L42.876 25.8134L44.5534 28.1603H43.8224ZM46.7057 28.2372C46.4031 28.2372 46.1261 28.1834 45.8747 28.0756C45.6285 27.9628 45.413 27.8115 45.2284 27.6217C45.0488 27.4267 44.9077 27.2036 44.8052 26.9522C44.7077 26.7009 44.659 26.4341 44.659 26.152C44.659 25.7724 44.7462 25.4261 44.9206 25.1132C45.095 24.8003 45.3361 24.5489 45.6439 24.3591C45.9568 24.1693 46.3133 24.0744 46.7134 24.0744C47.1187 24.0744 47.4701 24.1719 47.7676 24.3668C48.0703 24.5566 48.3037 24.808 48.4678 25.1209C48.6371 25.4287 48.7217 25.7621 48.7217 26.1212C48.7217 26.1725 48.7192 26.2238 48.714 26.2751C48.714 26.3213 48.7115 26.3572 48.7063 26.3828H45.3746C45.3951 26.6444 45.4669 26.8778 45.59 27.083C45.7183 27.2831 45.8824 27.4421 46.0825 27.5601C46.2825 27.673 46.498 27.7294 46.7288 27.7294C46.975 27.7294 47.2059 27.6678 47.4213 27.5447C47.6419 27.4216 47.7932 27.26 47.8753 27.0599L48.4601 27.2215C48.3729 27.4165 48.2421 27.5909 48.0677 27.7448C47.8984 27.8987 47.6958 28.0192 47.4598 28.1064C47.229 28.1936 46.9776 28.2372 46.7057 28.2372ZM45.3515 25.9134H48.0908C48.0703 25.6518 47.9959 25.421 47.8676 25.2209C47.7394 25.0209 47.5752 24.8644 47.3752 24.7515C47.1751 24.6387 46.9545 24.5823 46.7134 24.5823C46.4775 24.5823 46.2594 24.6387 46.0594 24.7515C45.8593 24.8644 45.6952 25.0209 45.5669 25.2209C45.4438 25.421 45.372 25.6518 45.3515 25.9134ZM49.436 26.5521V24.1437H50.1131V26.4213C50.1131 26.8317 50.1849 27.1395 50.3285 27.3446C50.4722 27.5498 50.6851 27.6524 50.9672 27.6524C51.1519 27.6524 51.3288 27.614 51.4981 27.537C51.6725 27.4549 51.829 27.3395 51.9675 27.1908C52.106 27.042 52.2137 26.865 52.2907 26.6598V24.1437H52.9678V27.3908C52.9678 27.4729 52.9832 27.5344 53.014 27.5755C53.0499 27.6114 53.1063 27.6319 53.1833 27.637V28.1603C53.1063 28.1705 53.0447 28.1757 52.9986 28.1757C52.9575 28.1808 52.9165 28.1834 52.8755 28.1834C52.7472 28.1834 52.6369 28.1449 52.5446 28.0679C52.4523 27.9859 52.4035 27.8858 52.3984 27.7679L52.383 27.2985C52.2086 27.596 51.9726 27.8268 51.6751 27.991C51.3827 28.1551 51.0621 28.2372 50.7133 28.2372C50.2926 28.2372 49.9746 28.0962 49.7591 27.814C49.5437 27.5268 49.436 27.1061 49.436 26.5521ZM56.2579 28.2372C55.9296 28.2372 55.6372 28.1551 55.3807 27.991C55.1242 27.8268 54.9216 27.6191 54.7729 27.3677V29.7992H54.0957V24.1437H54.6959V24.8977C54.8549 24.6515 55.0627 24.454 55.3192 24.3053C55.5757 24.1514 55.8552 24.0744 56.1579 24.0744C56.4349 24.0744 56.6888 24.1308 56.9197 24.2437C57.1505 24.3566 57.3506 24.5104 57.5199 24.7054C57.6891 24.9003 57.8199 25.1235 57.9123 25.3748C58.0097 25.621 58.0585 25.8801 58.0585 26.152C58.0585 26.5316 57.9815 26.8804 57.8276 27.1984C57.6789 27.5165 57.4686 27.7704 57.1967 27.9602C56.9248 28.1449 56.6119 28.2372 56.2579 28.2372ZM56.0502 27.6524C56.2502 27.6524 56.4298 27.6114 56.5888 27.5293C56.753 27.4421 56.8915 27.3293 57.0043 27.1908C57.1223 27.0471 57.2121 26.8855 57.2736 26.706C57.3352 26.5264 57.366 26.3418 57.366 26.152C57.366 25.9519 57.3301 25.7621 57.2582 25.5826C57.1915 25.403 57.0941 25.244 56.9658 25.1055C56.8427 24.967 56.6965 24.8593 56.5272 24.7823C56.3631 24.7002 56.1835 24.6592 55.9886 24.6592C55.8655 24.6592 55.7373 24.6823 55.6039 24.7285C55.4756 24.7746 55.3525 24.8413 55.2345 24.9285C55.1166 25.0106 55.0165 25.1055 54.9344 25.2132C54.8524 25.3209 54.7985 25.4364 54.7729 25.5595V26.706C54.8498 26.8804 54.9524 27.0394 55.0806 27.1831C55.2089 27.3267 55.3577 27.4421 55.5269 27.5293C55.6962 27.6114 55.8706 27.6524 56.0502 27.6524ZM64.1525 23.8436C64.0909 23.7718 64.0088 23.7025 63.9062 23.6358C63.8036 23.5691 63.6882 23.5101 63.56 23.4588C63.4317 23.4024 63.2907 23.3588 63.1368 23.328C62.988 23.2921 62.8316 23.2742 62.6674 23.2742C62.2468 23.2742 61.9364 23.3537 61.7363 23.5127C61.5363 23.6717 61.4363 23.8897 61.4363 24.1668C61.4363 24.3617 61.4876 24.5156 61.5901 24.6284C61.6927 24.7413 61.8492 24.8336 62.0595 24.9054C62.275 24.9773 62.5468 25.0516 62.8752 25.1286C63.2548 25.2107 63.5831 25.3107 63.8601 25.4287C64.1371 25.5467 64.35 25.7057 64.4987 25.9057C64.6475 26.1007 64.7219 26.3623 64.7219 26.6906C64.7219 26.9522 64.6706 27.1805 64.568 27.3754C64.4705 27.5652 64.332 27.7242 64.1525 27.8525C63.9729 27.9756 63.7626 28.0679 63.5215 28.1295C63.2804 28.1859 63.0188 28.2141 62.7367 28.2141C62.4596 28.2141 62.1878 28.1859 61.921 28.1295C61.6594 28.0679 61.4106 27.9807 61.1746 27.8679C60.9387 27.755 60.7181 27.614 60.5129 27.4447L60.8438 26.8599C60.9258 26.9471 61.031 27.0343 61.1592 27.1215C61.2926 27.2036 61.4414 27.2805 61.6055 27.3523C61.7748 27.4242 61.9569 27.4831 62.1519 27.5293C62.3468 27.5704 62.5468 27.5909 62.752 27.5909C63.1419 27.5909 63.4446 27.5216 63.66 27.3831C63.8755 27.2395 63.9832 27.0317 63.9832 26.7599C63.9832 26.5547 63.9216 26.3905 63.7985 26.2674C63.6805 26.1443 63.5036 26.0417 63.2676 25.9596C63.0316 25.8775 62.7443 25.7955 62.4058 25.7134C62.0364 25.621 61.7261 25.521 61.4747 25.4133C61.2234 25.3004 61.0336 25.1542 60.9053 24.9747C60.7822 24.7951 60.7206 24.5617 60.7206 24.2745C60.7206 23.9257 60.8053 23.6307 60.9746 23.3896C61.1439 23.1485 61.3773 22.9664 61.6748 22.8433C61.9723 22.7202 62.3083 22.6586 62.6828 22.6586C62.929 22.6586 63.1573 22.6842 63.3676 22.7355C63.5831 22.7868 63.7831 22.8587 63.9678 22.951C64.1525 23.0433 64.3217 23.1536 64.4756 23.2819L64.1525 23.8436ZM67.5274 27.9602C67.471 27.9859 67.394 28.0192 67.2966 28.0602C67.1991 28.1013 67.0863 28.1372 66.958 28.168C66.8298 28.1988 66.6938 28.2141 66.5502 28.2141C66.386 28.2141 66.2347 28.1859 66.0962 28.1295C65.9577 28.0679 65.8474 27.9756 65.7653 27.8525C65.6833 27.7242 65.6422 27.5652 65.6422 27.3754V24.6746H65.0959V24.1437H65.6422V22.8048H66.3194V24.1437H67.2196V24.6746H66.3194V27.1677C66.3296 27.3113 66.3783 27.419 66.4656 27.4908C66.5528 27.5575 66.6554 27.5909 66.7733 27.5909C66.9067 27.5909 67.0298 27.5678 67.1427 27.5216C67.2555 27.4755 67.3299 27.4421 67.3658 27.4216L67.5274 27.9602ZM68.1165 26.5521V24.1437H68.7937V26.4213C68.7937 26.8317 68.8655 27.1395 69.0091 27.3446C69.1527 27.5498 69.3656 27.6524 69.6478 27.6524C69.8324 27.6524 70.0094 27.614 70.1787 27.537C70.3531 27.4549 70.5096 27.3395 70.6481 27.1908C70.7866 27.042 70.8943 26.865 70.9713 26.6598V24.1437H71.6484V27.3908C71.6484 27.4729 71.6638 27.5344 71.6946 27.5755C71.7305 27.6114 71.7869 27.6319 71.8638 27.637V28.1603C71.7869 28.1705 71.7253 28.1757 71.6792 28.1757C71.6381 28.1808 71.5971 28.1834 71.556 28.1834C71.4278 28.1834 71.3175 28.1449 71.2252 28.0679C71.1328 27.9859 71.0841 27.8858 71.079 27.7679L71.0636 27.2985C70.8892 27.596 70.6532 27.8268 70.3557 27.991C70.0633 28.1551 69.7427 28.2372 69.3938 28.2372C68.9732 28.2372 68.6552 28.0962 68.4397 27.814C68.2243 27.5268 68.1165 27.1061 68.1165 26.5521ZM72.5147 26.1597C72.5147 25.7801 72.5916 25.4338 72.7455 25.1209C72.9046 24.8028 73.12 24.5489 73.3919 24.3591C73.6689 24.1693 73.9844 24.0744 74.3383 24.0744C74.6615 24.0744 74.9513 24.1591 75.2078 24.3283C75.4643 24.4976 75.6644 24.7028 75.808 24.9439V22.5432H76.4851V27.3908C76.4851 27.4729 76.5005 27.5344 76.5313 27.5755C76.5672 27.6114 76.6236 27.6319 76.7006 27.637V28.1603C76.5723 28.1808 76.4723 28.1911 76.4005 28.1911C76.2671 28.1911 76.1491 28.1449 76.0465 28.0526C75.9491 27.9602 75.9003 27.8576 75.9003 27.7448V27.4062C75.7413 27.6627 75.5284 27.8653 75.2617 28.0141C74.9949 28.1628 74.7179 28.2372 74.4307 28.2372C74.1537 28.2372 73.8972 28.1834 73.6612 28.0756C73.4304 27.9628 73.2277 27.8089 73.0533 27.614C72.884 27.419 72.7507 27.1984 72.6532 26.9522C72.5609 26.7009 72.5147 26.4367 72.5147 26.1597ZM75.808 26.7522V25.598C75.7465 25.4235 75.6464 25.2671 75.5079 25.1286C75.3694 24.9849 75.213 24.8721 75.0385 24.79C74.8693 24.7028 74.7 24.6592 74.5307 24.6592C74.3306 24.6592 74.1485 24.7028 73.9844 24.79C73.8254 24.8721 73.6868 24.9849 73.5689 25.1286C73.456 25.2671 73.3688 25.4261 73.3072 25.6057C73.2457 25.7852 73.2149 25.9724 73.2149 26.1674C73.2149 26.3674 73.2483 26.5572 73.3149 26.7368C73.3868 26.9163 73.4842 27.0753 73.6073 27.2138C73.7356 27.3523 73.8818 27.4601 74.0459 27.537C74.2152 27.614 74.3973 27.6524 74.5923 27.6524C74.7154 27.6524 74.841 27.6293 74.9693 27.5832C75.1027 27.537 75.2283 27.4729 75.3463 27.3908C75.4643 27.3087 75.5643 27.2138 75.6464 27.1061C75.7285 26.9933 75.7824 26.8753 75.808 26.7522ZM77.6155 28.1603V24.1437H78.2927V28.1603H77.6155ZM77.6155 23.3896V22.5432H78.2927V23.3896H77.6155ZM81.1433 28.2372C80.8406 28.2372 80.5662 28.1834 80.32 28.0756C80.0737 27.9628 79.8608 27.8115 79.6813 27.6217C79.5018 27.4267 79.3633 27.2036 79.2658 26.9522C79.1683 26.7009 79.1196 26.4367 79.1196 26.1597C79.1196 25.8775 79.1683 25.6108 79.2658 25.3594C79.3633 25.1081 79.5018 24.8875 79.6813 24.6977C79.8608 24.5028 80.0737 24.3514 80.32 24.2437C80.5713 24.1308 80.8458 24.0744 81.1433 24.0744C81.4459 24.0744 81.7204 24.1308 81.9666 24.2437C82.2128 24.3514 82.4257 24.5028 82.6053 24.6977C82.7899 24.8875 82.931 25.1081 83.0285 25.3594C83.1259 25.6108 83.1747 25.8775 83.1747 26.1597C83.1747 26.4367 83.1259 26.7009 83.0285 26.9522C82.931 27.2036 82.7925 27.4267 82.613 27.6217C82.4334 27.8115 82.218 27.9628 81.9666 28.0756C81.7204 28.1834 81.4459 28.2372 81.1433 28.2372ZM79.8121 26.1674C79.8121 26.4444 79.8711 26.6957 79.9891 26.9214C80.1122 27.1471 80.2738 27.3267 80.4739 27.4601C80.6739 27.5883 80.8971 27.6524 81.1433 27.6524C81.3895 27.6524 81.6127 27.5857 81.8127 27.4524C82.0179 27.319 82.1795 27.1395 82.2975 26.9137C82.4206 26.6829 82.4822 26.429 82.4822 26.152C82.4822 25.875 82.4206 25.6236 82.2975 25.3979C82.1795 25.1722 82.0179 24.9926 81.8127 24.8593C81.6127 24.7259 81.3895 24.6592 81.1433 24.6592C80.8971 24.6592 80.6739 24.7285 80.4739 24.867C80.2738 25.0003 80.1122 25.1799 79.9891 25.4056C79.8711 25.6313 79.8121 25.8852 79.8121 26.1674Z" fill="#FD8263"/>
<path d="M30.9324 17V4.27047H32.9433V10.8238L38.94 4.25252H41.1663L36.1391 9.89014L41.4536 17H39.1734L34.8644 11.1649L32.9433 13.1578V17H30.9324ZM48.9792 4.25252H50.8823L55.8377 17H53.7191L52.3725 13.5348H47.4531L46.1245 17H43.9879L48.9792 4.25252ZM51.9776 12.0446L49.9308 6.46089L47.8122 12.0446H51.9776ZM59.4762 4.25252L62.9953 10.5904L66.5502 4.25252H68.7586L64.0007 12.4396V17H61.9898V12.4037L57.2679 4.25252H59.4762ZM75.1517 4.25252H77.0548L82.0102 17H79.8916L78.545 13.5348H73.6255L72.2969 17H70.1604L75.1517 4.25252ZM78.15 12.0446L76.1032 6.46089L73.9846 12.0446H78.15Z" fill="white"/>
<mask id="path-3-inside-1_11_188" fill="white">
<path fill-rule="evenodd" clip-rule="evenodd" d="M12.3114 8.73446C12.3114 8.72984 12.3115 8.72522 12.3115 8.72061C12.3115 5.32089 9.55544 2.56488 6.15573 2.56488C2.75601 2.56488 0 5.32089 0 8.72061C0 12.1203 2.75601 14.8763 6.15573 14.8763C6.16161 14.8763 6.1675 14.8763 6.17339 14.8763H12.3114V8.73446Z"/>
</mask>
<path d="M12.3114 8.73446L11.2855 8.73213V8.73446H12.3114ZM6.17339 14.8763L6.17339 13.8503L6.17056 13.8504L6.17339 14.8763ZM12.3114 14.8763V15.9023H13.3374V14.8763H12.3114ZM11.2855 8.72061C11.2855 8.72452 11.2855 8.72836 11.2855 8.73213L13.3374 8.73679C13.3374 8.73133 13.3374 8.72593 13.3374 8.72061H11.2855ZM6.15573 3.59083C8.98882 3.59083 11.2855 5.88751 11.2855 8.72061H13.3374C13.3374 4.75427 10.1221 1.53893 6.15573 1.53893V3.59083ZM1.02595 8.72061C1.02595 5.88751 3.32263 3.59083 6.15573 3.59083V1.53893C2.18939 1.53893 -1.02595 4.75427 -1.02595 8.72061H1.02595ZM6.15573 13.8504C3.32263 13.8504 1.02595 11.5537 1.02595 8.72061H-1.02595C-1.02595 12.6869 2.18939 15.9023 6.15573 15.9023V13.8504ZM6.17056 13.8504C6.16556 13.8504 6.16062 13.8504 6.15573 13.8504V15.9023C6.16261 15.9023 6.16944 15.9023 6.17621 15.9023L6.17056 13.8504ZM12.3114 13.8504H6.17339V15.9023H12.3114V13.8504ZM11.2855 8.73446V14.8763H13.3374V8.73446H11.2855Z" fill="white" mask="url(#path-3-inside-1_11_188)"/>
<mask id="path-5-inside-2_11_188" fill="white">
<path fill-rule="evenodd" clip-rule="evenodd" d="M12.3114 22.0441C12.3114 22.0488 12.3115 22.0534 12.3115 22.058C12.3115 25.4577 9.55544 28.2137 6.15573 28.2137C2.75601 28.2137 0 25.4577 0 22.058C0 18.6583 2.75601 15.9023 6.15573 15.9023C6.16184 15.9023 6.16795 15.9023 6.17405 15.9023H12.3114V22.0441Z"/>
</mask>
<path d="M12.3114 22.0441L11.2855 22.0465V22.0441H12.3114ZM6.17405 15.9023L6.17405 16.9282L6.17101 16.9282L6.17405 15.9023ZM12.3114 15.9023V14.8763H13.3374V15.9023H12.3114ZM11.2855 22.058C11.2855 22.0541 11.2855 22.0502 11.2855 22.0465L13.3374 22.0418C13.3374 22.0473 13.3374 22.0527 13.3374 22.058H11.2855ZM6.15573 27.1878C8.98882 27.1878 11.2855 24.8911 11.2855 22.058H13.3374C13.3374 26.0243 10.1221 29.2397 6.15573 29.2397V27.1878ZM1.02595 22.058C1.02595 24.8911 3.32263 27.1878 6.15573 27.1878V29.2397C2.18939 29.2397 -1.02595 26.0243 -1.02595 22.058H1.02595ZM6.15573 16.9282C3.32263 16.9282 1.02595 19.2249 1.02595 22.058H-1.02595C-1.02595 18.0917 2.18939 14.8763 6.15573 14.8763V16.9282ZM6.17101 16.9282C6.16597 16.9282 6.16088 16.9282 6.15573 16.9282V14.8763C6.1628 14.8763 6.16992 14.8763 6.1771 14.8763L6.17101 16.9282ZM12.3114 16.9282H6.17405V14.8763H12.3114V16.9282ZM11.2855 22.0441V15.9023H13.3374V22.0441H11.2855Z" fill="white" mask="url(#path-5-inside-2_11_188)"/>
<path fill-rule="evenodd" clip-rule="evenodd" d="M13.3375 8.74958C13.3375 8.73993 13.3375 8.73027 13.3375 8.72061C13.3375 5.32089 16.0935 2.56488 19.4932 2.56488C22.8929 2.56488 25.6489 5.32089 25.6489 8.72061C25.6489 12.1203 22.8929 14.8763 19.4932 14.8763C19.4873 14.8763 19.4814 14.8763 19.4755 14.8763H13.3375V8.74958Z" fill="url(#paint0_linear_11_188)"/>
<mask id="path-8-inside-3_11_188" fill="white">
<path fill-rule="evenodd" clip-rule="evenodd" d="M13.3375 22.029C13.3375 22.0387 13.3375 22.0483 13.3375 22.058C13.3375 25.4577 16.0935 28.2137 19.4932 28.2137C22.8929 28.2137 25.6489 25.4577 25.6489 22.058C25.6489 18.6583 22.8929 15.9023 19.4932 15.9023C19.4871 15.9023 19.481 15.9023 19.4749 15.9023H13.3375V22.029Z"/>
</mask>
<path d="M13.3375 22.029L14.3635 22.0338V22.029H13.3375ZM19.4749 15.9023L19.4749 16.9282L19.4779 16.9282L19.4749 15.9023ZM13.3375 15.9023V14.8763H12.3116V15.9023H13.3375ZM14.3634 22.058C14.3634 22.0499 14.3634 22.0418 14.3635 22.0338L12.3116 22.0243C12.3115 22.0355 12.3115 22.0468 12.3115 22.058H14.3634ZM19.4932 27.1878C16.6601 27.1878 14.3634 24.8911 14.3634 22.058H12.3115C12.3115 26.0243 15.5269 29.2397 19.4932 29.2397V27.1878ZM24.623 22.058C24.623 24.8911 22.3263 27.1878 19.4932 27.1878V29.2397C23.4595 29.2397 26.6749 26.0243 26.6749 22.058H24.623ZM19.4932 16.9282C22.3263 16.9282 24.623 19.2249 24.623 22.058H26.6749C26.6749 18.0917 23.4595 14.8763 19.4932 14.8763V16.9282ZM19.4779 16.9282C19.483 16.9282 19.488 16.9282 19.4932 16.9282V14.8763C19.4861 14.8763 19.479 14.8763 19.4718 14.8763L19.4779 16.9282ZM13.3375 16.9282H19.4749V14.8763H13.3375V16.9282ZM14.3635 22.029V15.9023H12.3116V22.029H14.3635Z" fill="white" mask="url(#path-8-inside-3_11_188)"/>
<defs>
<linearGradient id="paint0_linear_11_188" x1="23.084" y1="5.77099" x2="13.4657" y2="14.7481" gradientUnits="userSpaceOnUse">
<stop stop-color="#E05D3C"/>
<stop offset="1" stop-color="#FD8263"/>
</linearGradient>
</defs>
</svg>
