<svg width="32" height="32" viewBox="0 0 32 32" fill="none" xmlns="http://www.w3.org/2000/svg">
<rect width="32" height="32" rx="8.42105" fill="url(#paint0_linear_6_109)"/>
<mask id="path-2-inside-1_6_109" fill="white">
<path fill-rule="evenodd" clip-rule="evenodd" d="M9.61866 15.5076C9.61247 15.5076 9.60627 15.5076 9.60007 15.5076C6.33735 15.5076 3.69238 12.8627 3.69238 9.59995C3.69238 6.33722 6.33735 3.69226 9.60007 3.69226C12.8628 3.69226 15.5078 6.33722 15.5078 9.59995C15.5078 9.60335 15.5078 9.60674 15.5078 9.61013V15.5076H9.61866Z"/>
</mask>
<path d="M9.61866 15.5076L9.61866 14.523L9.61563 14.523L9.61866 15.5076ZM15.5078 9.61013L14.5231 9.60847V9.61013H15.5078ZM15.5078 15.5076V16.4922H16.4924V15.5076H15.5078ZM9.61563 14.523C9.61045 14.523 9.60526 14.523 9.60007 14.523V16.4923C9.60728 16.4923 9.61449 16.4922 9.62169 16.4922L9.61563 14.523ZM9.60007 14.523C6.88113 14.523 4.677 12.3189 4.677 9.59995H2.70777C2.70777 13.4065 5.79356 16.4923 9.60007 16.4923V14.523ZM4.677 9.59995C4.677 6.88101 6.88113 4.67688 9.60007 4.67688V2.70765C5.79356 2.70765 2.70777 5.79344 2.70777 9.59995H4.677ZM9.60007 4.67688C12.319 4.67688 14.5232 6.88101 14.5232 9.59995H16.4924C16.4924 5.79344 13.4066 2.70765 9.60007 2.70765V4.67688ZM14.5232 9.59995C14.5232 9.60279 14.5231 9.60563 14.5231 9.60847L16.4924 9.61179C16.4924 9.60785 16.4924 9.6039 16.4924 9.59995H14.5232ZM14.5231 9.61013V15.5076H16.4924V9.61013H14.5231ZM15.5078 14.523H9.61866V16.4922H15.5078V14.523Z" fill="white" mask="url(#path-2-inside-1_6_109)"/>
<mask id="path-4-inside-2_6_109" fill="white">
<path fill-rule="evenodd" clip-rule="evenodd" d="M9.61866 16.4923C9.61247 16.4922 9.60627 16.4922 9.60007 16.4922C6.33735 16.4922 3.69238 19.1372 3.69238 22.3999C3.69238 25.6627 6.33735 28.3076 9.60007 28.3076C12.8628 28.3076 15.5078 25.6627 15.5078 22.3999C15.5078 22.3965 15.5078 22.3931 15.5078 22.3897V16.4923H9.61866Z"/>
</mask>
<path d="M9.61866 16.4923L9.61866 17.4769L9.61563 17.4769L9.61866 16.4923ZM15.5078 22.3897L14.5231 22.3914V22.3897H15.5078ZM15.5078 16.4923V15.5076H16.4924V16.4923H15.5078ZM9.61563 17.4769C9.61045 17.4769 9.60526 17.4768 9.60007 17.4768V15.5076C9.60728 15.5076 9.61449 15.5076 9.62169 15.5077L9.61563 17.4769ZM9.60007 17.4768C6.88113 17.4768 4.677 19.681 4.677 22.3999H2.70777C2.70777 18.5934 5.79356 15.5076 9.60007 15.5076V17.4768ZM4.677 22.3999C4.677 25.1189 6.88113 27.323 9.60007 27.323V29.2922C5.79356 29.2922 2.70777 26.2064 2.70777 22.3999H4.677ZM9.60007 27.323C12.319 27.323 14.5232 25.1189 14.5232 22.3999H16.4924C16.4924 26.2064 13.4066 29.2922 9.60007 29.2922V27.323ZM14.5232 22.3999C14.5232 22.3971 14.5231 22.3942 14.5231 22.3914L16.4924 22.3881C16.4924 22.392 16.4924 22.396 16.4924 22.3999H14.5232ZM14.5231 22.3897V16.4923H16.4924V22.3897H14.5231ZM15.5078 17.4769H9.61866V15.5076H15.5078V17.4769Z" fill="white" mask="url(#path-4-inside-2_6_109)"/>
<path fill-rule="evenodd" clip-rule="evenodd" d="M22.3816 15.5076C22.3878 15.5076 22.394 15.5076 22.4002 15.5076C25.6629 15.5076 28.3079 12.8627 28.3079 9.59995C28.3079 6.33722 25.6629 3.69226 22.4002 3.69226C19.1374 3.69226 16.4925 6.33722 16.4925 9.59995C16.4925 9.60353 16.4925 9.60711 16.4925 9.61068V15.5076H22.3816Z" fill="url(#paint1_linear_6_109)"/>
<mask id="path-7-inside-3_6_109" fill="white">
<path fill-rule="evenodd" clip-rule="evenodd" d="M22.3816 16.4923C22.3878 16.4922 22.394 16.4922 22.4002 16.4922C25.6629 16.4922 28.3079 19.1372 28.3079 22.3999C28.3079 25.6627 25.6629 28.3076 22.4002 28.3076C19.1374 28.3076 16.4925 25.6627 16.4925 22.3999C16.4925 22.3963 16.4925 22.3928 16.4925 22.3892V16.4923H22.3816Z"/>
</mask>
<path d="M22.3816 16.4923L22.3816 17.4769L22.3846 17.4769L22.3816 16.4923ZM16.4925 22.3892L17.4771 22.391V22.3892H16.4925ZM16.4925 16.4923V15.5076H15.5079V16.4923H16.4925ZM22.3846 17.4769C22.3898 17.4769 22.395 17.4768 22.4002 17.4768V15.5076C22.393 15.5076 22.3858 15.5076 22.3786 15.5077L22.3846 17.4769ZM22.4002 17.4768C25.1191 17.4768 27.3232 19.681 27.3232 22.3999H29.2925C29.2925 18.5934 26.2067 15.5076 22.4002 15.5076V17.4768ZM27.3232 22.3999C27.3232 25.1189 25.1191 27.323 22.4002 27.323V29.2922C26.2067 29.2922 29.2925 26.2064 29.2925 22.3999H27.3232ZM22.4002 27.323C19.6812 27.323 17.4771 25.1189 17.4771 22.3999H15.5079C15.5079 26.2064 18.5937 29.2922 22.4002 29.2922V27.323ZM17.4771 22.3999C17.4771 22.3969 17.4771 22.3939 17.4771 22.391L15.5079 22.3874C15.5079 22.3916 15.5079 22.3958 15.5079 22.3999H17.4771ZM17.4771 22.3892V16.4923H15.5079V22.3892H17.4771ZM16.4925 17.4769H22.3816V15.5076H16.4925V17.4769Z" fill="white" mask="url(#path-7-inside-3_6_109)"/>
<defs>
<linearGradient id="paint0_linear_6_109" x1="2.76923" y1="35.6923" x2="16" y2="16" gradientUnits="userSpaceOnUse">
<stop stop-color="#28252D"/>
<stop offset="1" stop-color="#3B3742"/>
</linearGradient>
<linearGradient id="paint1_linear_6_109" x1="25.8463" y1="6.76918" x2="16.6156" y2="15.3846" gradientUnits="userSpaceOnUse">
<stop stop-color="#E05D3C"/>
<stop offset="1" stop-color="#FD8263"/>
</linearGradient>
</defs>
</svg>
